Coordinates
version=1
nRows=4
nColumns=107
inDegrees=yes

Units are S.I. units (second, meters, Newtons, ...)
If the header above contains a line with 'inDegrees', this indicates whether rotational values are in degrees (yes) or radians (no).

endheader
time	sternoclavicular_r2	sternoclavicular_r3	unrotscap_r3	unrotscap_r2	acromioclavicular_r2	acromioclavicular_r3	acromioclavicular_r1	unrothum_r1	unrothum_r3	unrothum_r2	elv_angle	shoulder_elv	shoulder1_r2	shoulder_rot	elbow_flexion	pro_sup	deviation	flexion	proximal_distal_r1	proximal_distal_r3	cmc_flexion	cmc_abduction	mp_flexion	ip_flexion	mcp2_flexion	mcp2_abduction	pm2_flexion	md2_flexion	mcp3_flexion	mcp3_abduction	pm3_flexion	md3_flexion	mcp4_flexion	mcp4_abduction	pm4_flexion	md4_flexion	mcp5_flexion	mcp5_abduction	pm5_flexion	md5_flexion	bicpt_tx	bicpt_ty	bicpt_tz	bicpt2_tx	bicpt2_ty	bicpt2_tz	ptpt_tx	ptpt_ty	ptpt_tz	FCUpt_tx	FCUpt_ty	FCUpt_tz	EDCpt_tx	EDCpt_ty	EDCpt_tz	APLpt_tx	APLpt_ty	APLpt_tz	FPLpt_tx	FPLpt_ty	FPLpt_tz	FPLpt2_tx	FPLpt2_ty	FPLpt2_tz	PEC1pt2_tx	PEC1pt2_ty	PEC1pt2_tz	PEC1pt3_tx	PEC1pt3_ty	PEC1pt3_tz	PEC2pt2_tx	PEC2pt2_ty	PEC2pt2_tz	PEC2pt3_tx	PEC2pt3_ty	PEC2pt3_tz	PEC3pt2_tx	PEC3pt2_ty	PEC3pt2_tz	PEC3pt3_tx	PEC3pt3_ty	PEC3pt3_tz	DELT2pt2a_tx	DELT2pt2a_ty	DELT2pt2a_tz	DELT2pt2_tx	DELT2pt2_ty	DELT2pt2_tz	LAT1pt2_tx	LAT1pt2_ty	LAT1pt2_tz	LAT1pt3_tx	LAT1pt3_ty	LAT1pt3_tz	LAT2pt2_tx	LAT2pt2_ty	LAT2pt2_tz	LAT2pt3_tx	LAT2pt3_ty	LAT2pt3_tz	LAT3pt2_tx	LAT3pt2_ty	LAT3pt2_tz	LAT3pt3_tx	LAT3pt3_ty	LAT3pt3_tz
      0.46666667	     -0.31823078	      0.13478754	     -0.13478754	      0.31823078	     -0.06443526	      0.52074310	      0.23407044	     -0.23407044	     -0.52074310	      0.06443526	     99.32724180	     75.34396496	     -1.73358741	    -24.05265715	     28.55087204	     13.09643221	     -0.02383768	     -0.83631362	     -0.03281568	     -0.41815681	     -8.98890061	     -1.36328631	    -34.89330178	      1.51570588	      4.74578184	      7.73701648	     11.09940547	    -24.46065553	     44.13183284	     11.16270021	     86.96928060	     72.89428047	     37.59143084	     -6.05107108	     88.48658917	     55.49003839	     -7.91588967	     -1.03586673	    -15.63823727	      4.96732623	      0.00084437	     -0.03087237	     -0.00482709	      0.01569621	     -0.01795598	     -0.00983461	      0.00658232	     -0.06552572	     -0.00110499	      0.00518332	     -0.18395196	      0.00007710	     -0.00157157	      0.00039753	      0.00014342	      0.00026994	      0.00010798	      0.00053989	      0.00034553	      0.00103658	      0.00058308	     -0.00107866	      0.00026961	      0.00032353	      0.00246961	      0.00866456	      0.00602752	     -0.00807855	      0.01950573	     -0.01850114	      0.00246961	      0.00866456	      0.00602752	      0.00054415	      0.01808257	     -0.00950172	      0.00391666	      0.00481825	      0.01589067	      0.00000000	      0.00759069	      0.00000000	     -0.00707397	     -0.03269094	     -0.00625779	      0.01600503	     -0.00055955	     -0.00483071	     -0.00087901	      0.01473394	     -0.00602752	      0.00242775	      0.02126376	     -0.01758027	     -0.00590195	      0.01276663	     -0.00539966	     -0.01230619	      0.02695642	     -0.03017947	     -0.02310550	      0.01427351	     -0.00724140	     -0.01531995	      0.03114220	     -0.03771387
      0.50000000	     -0.31595594	      0.13382402	     -0.13382402	      0.31595594	     -0.06397465	      0.51702062	      0.23239721	     -0.23239721	     -0.51702062	      0.06397465	     99.92282180	     74.80537643	     -1.74398224	    -27.06297878	     28.63542195	     16.07370566	     -0.03054268	     -0.81948365	     -0.04221387	     -0.40974183	     -8.79916292	     -1.53756450	    -34.51164560	     -1.13046882	      4.85090228	      7.70661878	     11.45678989	    -26.40614304	     44.17724162	     11.19654503	     86.90441201	     73.85232874	     37.41061985	     -6.03181612	     88.94110074	     55.15213371	     -7.36422512	     -0.93232566	    -17.01906605	      4.99945539	      0.00084717	     -0.03088206	     -0.00482865	      0.01587488	     -0.01797895	     -0.00962287	      0.00636233	     -0.06566796	     -0.00134482	      0.00545971	     -0.18391151	     -0.00000101	     -0.00192884	      0.00049529	      0.00016306	      0.00027605	      0.00011042	      0.00055211	      0.00035335	      0.00106005	      0.00059628	     -0.00103372	      0.00026299	      0.00031559	      0.00245196	      0.00860263	      0.00598444	     -0.00802081	      0.01936630	     -0.01836889	      0.00245196	      0.00860263	      0.00598444	      0.00054026	      0.01795331	     -0.00943380	      0.00389606	      0.00478381	      0.01583941	      0.00000000	      0.00748184	      0.00000000	     -0.00702340	     -0.03245725	     -0.00616740	      0.01751835	     -0.00065813	     -0.00612270	     -0.00087273	      0.01462862	     -0.00598444	      0.00241040	      0.02111176	     -0.01745460	     -0.00585976	      0.01267537	     -0.00536106	     -0.01221822	      0.02676372	     -0.02996373	     -0.02294033	      0.01417147	     -0.00718963	     -0.01521044	      0.03091958	     -0.03744428
      0.53333333	     -0.31469411	      0.13328957	     -0.13328957	      0.31469411	     -0.06371916	      0.51495580	      0.23146909	     -0.23146909	     -0.51495580	      0.06371916	    100.28567266	     74.50662730	     -1.75031518	    -28.78405216	     28.67507128	     17.77795011	     -0.03425534	     -0.81376200	     -0.04744978	     -0.40688100	     -8.84386495	     -1.39919611	    -34.13379953	     -2.02144576	      5.18324607	      7.65582466	     11.42708110	    -27.58731799	     44.22789108	     11.24248903	     86.83281709	     74.10616032	     37.60423967	     -6.03826613	     88.99934272	     54.86307069	     -6.95340050	     -0.92982760	    -17.61461313	      5.01035593	      0.00084848	     -0.03088660	     -0.00482939	      0.01596804	     -0.01798972	     -0.00949609	      0.00623641	     -0.06574939	     -0.00148211	      0.00561915	     -0.18388723	     -0.00004273	     -0.00213335	      0.00055248	      0.00017214	      0.00027803	      0.00011121	      0.00055605	      0.00035587	      0.00106762	      0.00060053	     -0.00104406	      0.00026454	      0.00031745	      0.00244216	      0.00856827	      0.00596054	     -0.00798877	      0.01928895	     -0.01829553	      0.00244216	      0.00856827	      0.00596054	      0.00053810	      0.01788161	     -0.00939612	      0.00388458	      0.00476471	      0.01581068	      0.00000000	      0.00742181	      0.00000000	     -0.00699535	     -0.03232763	     -0.00611754	      0.01832911	     -0.00071581	     -0.00691584	     -0.00086924	      0.01457020	     -0.00596054	      0.00240077	      0.02102744	     -0.01738489	     -0.00583636	      0.01262474	     -0.00533965	     -0.01216943	      0.02665684	     -0.02984407	     -0.02284872	      0.01411488	     -0.00716092	     -0.01514969	      0.03079610	     -0.03729474
      0.56666667	     -0.31603420	      0.13385717	     -0.13385717	      0.31603420	     -0.06399050	      0.51714869	      0.23245478	     -0.23245478	     -0.51714869	      0.06399050	     99.83116616	     74.82390699	     -1.74238255	    -26.94723890	     28.87560525	     16.52215009	     -0.00946128	     -0.77318543	     -0.01291263	     -0.38659272	     -8.90129739	     -1.55194227	    -34.26438638	     -0.47864936	      5.05556123	      7.85704821	     10.81423401	    -27.20705295	     44.08301628	     11.37983762	     86.89709588	     73.70002813	     37.31940617	     -5.67156808	     88.71719836	     54.38258496	     -7.20504168	     -0.63640559	    -16.56353067	      4.98799420	      0.00085512	     -0.03090959	     -0.00483309	      0.01590004	     -0.01804420	     -0.00958991	      0.00632920	     -0.06568939	     -0.00138095	      0.00550158	     -0.18390520	     -0.00001220	     -0.00198265	      0.00051025	      0.00016560	      0.00029044	      0.00011618	      0.00058089	      0.00037177	      0.00111531	      0.00062736	     -0.00105783	      0.00026655	      0.00031986	      0.00245256	      0.00860476	      0.00598592	     -0.00802279	      0.01937109	     -0.01837344	      0.00245256	      0.00860476	      0.00598592	      0.00054040	      0.01795775	     -0.00943613	      0.00389677	      0.00478500	      0.01584119	      0.00000000	      0.00748557	      0.00000000	     -0.00702514	     -0.03246529	     -0.00617050	      0.01746245	     -0.00065428	     -0.00607071	     -0.00087295	      0.01463224	     -0.00598592	      0.00241099	      0.02111699	     -0.01745893	     -0.00586121	      0.01267851	     -0.00536238	     -0.01222125	      0.02677035	     -0.02997116	     -0.02294602	      0.01417499	     -0.00719141	     -0.01521421	      0.03092724	     -0.03745355
